<?xml version="1.0" encoding="UTF-8"?>
<svg width="18px" height="18px" viewBox="0 0 18 18" version="1.1" xmlns="http://www.w3.org/2000/svg" xmlns:xlink="http://www.w3.org/1999/xlink">
    <!-- Generator: Sketch 52.5 (67469) - http://www.bohemiancoding.com/sketch -->
    <title>Combined Shape</title>
    <desc>Created with Sketch.</desc>
    <g id="Page-1" stroke="none" stroke-width="1" fill="none" fill-rule="evenodd">
        <g id="icon-close" fill="#4A4A4A" fill-rule="nonzero">
            <path d="M9,18 C4.02943725,18 0,13.9705627 0,9 C0,4.02943725 4.02943725,0 9,0 C13.9705627,0 18,4.02943725 18,9 C18,13.9705627 13.9705627,18 9,18 Z M10.4142136,9 L13.9497475,5.46446609 C14.3402718,5.0739418 14.3402718,4.44077682 13.9497475,4.05025253 C13.5592232,3.65972824 12.9260582,3.65972824 12.5355339,4.05025253 L9,7.58578644 L5.46446609,4.05025253 C5.0739418,3.65972824 4.44077682,3.65972824 4.05025253,4.05025253 C3.65972824,4.44077682 3.65972824,5.0739418 4.05025253,5.46446609 L7.58578644,9 L4.05025253,12.5355339 C3.65972824,12.9260582 3.65972824,13.5592232 4.05025253,13.9497475 C4.44077682,14.3402718 5.0739418,14.3402718 5.46446609,13.9497475 L9,10.4142136 L12.5355339,13.9497475 C12.9260582,14.3402718 13.5592232,14.3402718 13.9497475,13.9497475 C14.3402718,13.5592232 14.3402718,12.9260582 13.9497475,12.5355339 L10.4142136,9 Z" id="Combined-Shape"></path>
        </g>
    </g>
</svg>